<svg width="214" height="34" viewBox="0 0 214 34" fill="none" xmlns="http://www.w3.org/2000/svg">
<path d="M14.5491 10.944H24.6291V14.368H14.5491V10.944ZM13.9091 26.016H25.5251V29.504H13.9091V26.016ZM19.5411 5.248C17.9091 8.288 14.7731 12.064 11.3171 14.272C10.9331 13.216 10.0371 11.712 9.36513 10.816C12.8531 8.736 16.0531 4.576 17.5251 1.312H21.2691C23.3811 5.088 26.6131 8.8 29.9411 10.496C29.1731 11.52 28.3731 12.992 27.8291 14.176C24.5331 12.096 21.2371 8.352 19.5411 5.248ZM12.2451 17.088H27.4451V30.848H23.5411V20.544H15.9571V30.88H12.2451V17.088ZM2.74113 4.032H10.3891V22.4H2.74113V18.848H6.74113V7.584H2.74113V4.032ZM0.501125 4.032H4.02113V25.056H0.501125V4.032ZM42.0051 6.624H60.5971V9.728H42.0051V6.624ZM41.8771 17.856H60.7571V21.024H41.8771V17.856ZM49.3651 0.831999H52.9491V15.616H49.3651V0.831999ZM43.0291 2.816L45.9091 1.536C46.7091 2.784 47.6691 4.512 48.1491 5.568L45.0771 7.072C44.6931 5.984 43.7651 4.16 43.0291 2.816ZM56.4051 1.28L59.7971 2.72C58.6451 4.256 57.5251 5.824 56.6611 6.912L54.1011 5.664C54.9011 4.48 55.8611 2.592 56.4051 1.28ZM48.6931 7.84L51.5091 8.928C49.5891 11.904 46.3891 14.88 43.3491 16.48C42.8691 15.648 41.7811 14.432 41.0131 13.792C43.8931 12.544 47.0611 10.176 48.6931 7.84ZM53.4931 7.936C55.2211 10.016 58.5491 12.224 61.3331 13.344C60.5331 13.984 59.4451 15.264 58.8691 16.128C56.0851 14.592 52.7891 11.712 50.9011 9.056L53.4931 7.936ZM43.3491 24.512L45.7491 22.112C51.2211 23.936 57.1731 26.4 60.6611 28.224L57.6531 30.784C54.4211 28.928 48.8851 26.4 43.3491 24.512ZM53.9091 20.224L57.5891 20.64C55.7331 27.168 51.4451 29.504 42.2291 30.816C41.9731 29.76 41.3651 28.384 40.8211 27.648C48.6931 26.976 52.4371 25.216 53.9091 20.224ZM34.7091 3.616H41.1091V22.496H34.7091V18.976H37.8771V7.136H34.7091V3.616ZM32.5011 3.616H35.8611V25.344H32.5011V3.616ZM43.3491 24.512C45.2051 22.176 47.4131 18.528 48.6931 15.52L52.4051 16.256C51.1891 19.168 49.1091 22.528 47.6371 24.544L43.3491 24.512ZM84.9811 3.68L87.8611 1.696C89.6211 3.2 91.7011 5.344 92.6611 6.848L89.5571 9.024C88.7251 7.488 86.7091 5.248 84.9811 3.68ZM64.0211 9.92H92.9171V13.568H64.0211V9.92ZM63.4131 18.976C67.2851 18.4 73.3651 17.344 78.9651 16.32L79.2531 19.808C74.0691 20.896 68.5011 22.016 64.3731 22.848L63.4131 18.976ZM70.1011 4.768H73.9731V26.4C73.9731 28.48 73.5571 29.536 72.2451 30.144C70.9651 30.752 69.0771 30.88 66.4531 30.88C66.2931 29.792 65.6531 28.064 65.0771 26.976C66.9011 27.072 68.7571 27.072 69.3331 27.04C69.9091 27.04 70.1011 26.88 70.1011 26.336V4.768ZM76.6611 1.024L79.2531 4.288C75.0931 5.568 69.6211 6.432 64.9811 6.944C64.7891 6.048 64.3091 4.608 63.8611 3.744C68.3731 3.136 73.3651 2.144 76.6611 1.024ZM79.7971 1.088H83.8291C83.6051 13.984 86.4851 27.104 89.3971 27.104C90.0691 27.104 90.4211 25.536 90.6131 21.728C91.4131 22.624 92.7251 23.52 93.7491 23.936C93.1411 29.6 91.9251 31.008 89.0131 31.008C82.3891 31.008 79.8931 15.456 79.7971 1.088ZM88.5011 14.624L91.8931 16.064C88.5651 22.016 83.3491 26.784 77.5571 29.856C76.9811 28.896 75.9251 27.616 74.9651 26.752C80.4371 24.256 85.6531 19.904 88.5011 14.624ZM96.3091 14.496H124.661V17.888H96.3091V14.496ZM110.645 20.288H122.613V23.584H110.645V20.288ZM108.853 16.224H112.725V28.064H108.853V16.224ZM103.893 21.344C105.653 26.016 109.717 26.752 115.317 26.784C117.077 26.816 123.253 26.784 125.557 26.72C125.013 27.552 124.437 29.248 124.245 30.368H115.093C107.733 30.368 103.349 29.056 100.725 22.368L103.893 21.344ZM101.109 18.56L104.949 19.104C103.893 24.384 101.589 28.416 98.0371 30.944C97.4611 30.24 95.9891 28.832 95.1571 28.256C98.4211 26.24 100.373 22.848 101.109 18.56ZM102.997 8.768V10.368H117.685V8.768H102.997ZM102.997 4.64V6.24H117.685V4.64H102.997ZM99.2851 1.92H121.589V13.088H99.2851V1.92ZM138.252 8.032V8.992C138.252 9.65333 138.007 10.496 137.516 11.52L135.82 14.752C135.671 14.9653 135.468 15.072 135.212 15.072C134.85 15.072 134.668 14.8587 134.668 14.432V8.064C134.668 7.63733 134.882 7.424 135.308 7.424H137.612C138.039 7.424 138.252 7.62667 138.252 8.032ZM143.436 8.032V8.992C143.436 9.65333 143.191 10.496 142.7 11.52L141.004 14.752C140.855 14.9653 140.652 15.072 140.396 15.072C140.034 15.072 139.852 14.8587 139.852 14.432V8.064C139.852 7.63733 140.066 7.424 140.492 7.424H142.796C143.223 7.424 143.436 7.62667 143.436 8.032ZM152.258 24.48H154.53C155.213 24.48 155.693 24.3413 155.97 24.064C156.269 23.7653 156.418 23.2747 156.418 22.592V12.832C156.418 12.1493 156.269 11.6693 155.97 11.392C155.693 11.0933 155.213 10.944 154.53 10.944H152.258C151.575 10.944 151.095 11.0933 150.818 11.392C150.541 11.6693 150.402 12.1493 150.402 12.832V22.592C150.402 23.2747 150.541 23.7653 150.818 24.064C151.095 24.3413 151.575 24.48 152.258 24.48ZM155.202 28H151.618C149.933 28 148.631 27.552 147.714 26.656C146.797 25.76 146.338 24.4693 146.338 22.784V12.64C146.338 10.9547 146.797 9.664 147.714 8.768C148.631 7.872 149.933 7.424 151.618 7.424H155.202C156.887 7.424 158.189 7.872 159.106 8.768C160.023 9.664 160.482 10.9547 160.482 12.64V22.784C160.482 24.4693 160.023 25.76 159.106 26.656C158.189 27.552 156.887 28 155.202 28ZM164.154 8.928V6.144C164.154 5.71733 164.368 5.504 164.794 5.504H167.578C168.005 5.504 168.218 5.70667 168.218 6.112V8.928C168.218 9.35467 168.005 9.568 167.578 9.568H164.794C164.368 9.568 164.154 9.35467 164.154 8.928ZM162.906 33.312H160.762C160.314 33.312 160.09 33.088 160.09 32.64V30.464C160.09 30.016 160.314 29.792 160.762 29.792H161.658C162.618 29.792 163.269 29.6213 163.61 29.28C163.973 28.9387 164.154 28.288 164.154 27.328V12.352C164.154 11.904 164.378 11.68 164.826 11.68H167.546C167.994 11.68 168.218 11.904 168.218 12.352V28.064C168.218 29.728 167.749 31.0187 166.81 31.936C165.872 32.8533 164.57 33.312 162.906 33.312ZM177.629 28H176.861C175.175 28 173.874 27.552 172.957 26.656C172.039 25.76 171.581 24.4693 171.581 22.784V16.896C171.581 15.2107 172.039 13.92 172.957 13.024C173.874 12.128 175.175 11.68 176.861 11.68H184.253C184.722 11.68 184.957 11.904 184.957 12.352V27.328C184.957 27.776 184.722 28 184.253 28H181.565C181.117 28 180.893 27.776 180.893 27.328V26.272H180.765C180.53 26.848 180.114 27.2853 179.517 27.584C178.919 27.8613 178.29 28 177.629 28ZM180.893 22.048V15.552C180.893 15.3173 180.765 15.2 180.509 15.2H177.501C176.818 15.2 176.338 15.3493 176.061 15.648C175.783 15.9253 175.645 16.4053 175.645 17.088V22.592C175.645 23.2747 175.783 23.7653 176.061 24.064C176.338 24.3413 176.818 24.48 177.501 24.48H178.685C180.157 24.48 180.893 23.6693 180.893 22.048ZM191.855 28H189.135C188.687 28 188.463 27.776 188.463 27.328V12.352C188.463 11.904 188.687 11.68 189.135 11.68H191.855C192.303 11.68 192.527 11.904 192.527 12.352V13.408H192.655C193.124 12.256 194.17 11.68 195.791 11.68H196.815C200.164 11.68 201.839 13.4187 201.839 16.896V27.328C201.839 27.776 201.604 28 201.135 28H198.447C197.999 28 197.775 27.776 197.775 27.328V17.088C197.775 16.4053 197.626 15.9253 197.327 15.648C197.05 15.3493 196.57 15.2 195.887 15.2H194.735C193.263 15.2 192.527 16.0107 192.527 17.632V27.328C192.527 27.776 192.303 28 191.855 28ZM208.221 8.032V8.992C208.221 9.65333 207.976 10.496 207.485 11.52L205.789 14.752C205.64 14.9653 205.437 15.072 205.181 15.072C204.818 15.072 204.637 14.8587 204.637 14.432V8.064C204.637 7.63733 204.85 7.424 205.277 7.424H207.581C208.008 7.424 208.221 7.62667 208.221 8.032ZM213.405 8.032V8.992C213.405 9.65333 213.16 10.496 212.669 11.52L210.973 14.752C210.824 14.9653 210.621 15.072 210.365 15.072C210.002 15.072 209.821 14.8587 209.821 14.432V8.064C209.821 7.63733 210.034 7.424 210.461 7.424H212.765C213.192 7.424 213.405 7.62667 213.405 8.032Z" fill="white"/>
</svg>
